# xmcd CD database file
#
# Track frame offsets:
#	150
#	13310
#	25867
#
# Disc length: 472 seconds
#
# Revision: 0
# Processed by: cddbd v1.5.1PL0 Copyright (c) Steve Scherf et al.
# Submitted via: CDex 1.51
#
DISCID=1c01d603
DTITLE=POLYSICS - Baby BIAS
DYEAR=2005
DGENRE=Pop
TTITLE0=Baby BIAS
TTITLE1=サイコサイコさん
TTITLE2=Life In Yellow
EXTD=YEAR: 2005
EXTT0=
EXTT1=
EXTT2=
PLAYORDER=
